<?xml version="1.0" standalone="no"?>
<!DOCTYPE svg PUBLIC "-//W3C//DTD SVG 20010904//EN"
 "http://www.w3.org/TR/2001/REC-SVG-20010904/DTD/svg10.dtd">
<svg version="1.0" xmlns="http://www.w3.org/2000/svg"
 width="512.000000pt" height="512.000000pt" viewBox="0 0 512.000000 512.000000"
 preserveAspectRatio="xMidYMid meet">
<metadata>
Created by potrace 1.16, written by Peter Selinger 2001-2019
</metadata>
<g transform="translate(0.000000,512.000000) scale(0.100000,-0.100000)"
fill="#FFFFFF" stroke="none">
<path d="M3280 4575 c-133 -29 -234 -81 -328 -169 -153 -143 -226 -318 -250
-602 -10 -119 -35 -180 -130 -321 -209 -311 -683 -789 -1099 -1108 -29 -22
-51 -44 -49 -50 4 -14 135 -63 241 -90 265 -68 529 -52 771 45 297 119 517
356 560 602 17 99 40 128 105 128 61 0 99 -42 99 -108 0 -211 -176 -486 -425
-664 -146 -103 -358 -193 -540 -229 -115 -23 -416 -18 -542 9 -130 28 -262 72
-379 127 l-91 42 -94 -64 c-200 -136 -451 -277 -659 -368 -126 -55 -150 -78
-150 -143 0 -47 3 -51 221 -322 121 -151 231 -280 242 -287 12 -7 38 -12 58
-13 39 0 60 13 413 244 134 87 215 135 225 131 9 -4 75 -24 146 -46 198 -60
441 -101 659 -112 l49 -2 62 -225 62 -225 -369 -5 -370 -5 -29 -33 c-43 -47
-41 -102 5 -148 l34 -34 1086 0 1086 0 32 29 c29 26 33 35 33 80 0 42 -5 55
-28 78 l-27 28 -297 5 -297 5 -88 305 c-48 168 -86 310 -84 315 2 6 43 32 90
58 263 146 517 407 677 695 174 312 263 654 274 1047 l5 160 286 96 c225 75
290 101 305 120 25 33 25 109 0 140 -11 14 -137 77 -316 159 l-298 136 -26 75
c-57 161 -143 286 -260 379 -75 60 -131 90 -226 120 -91 29 -280 36 -375 15z
m-346 -3302 c26 -88 146 -513 146 -518 0 -3 -88 -5 -195 -5 l-195 0 -6 28 c-4
15 -33 119 -64 232 l-57 205 101 17 c56 10 130 26 166 37 84 24 98 25 104 4z"/>
</g>
</svg>
